<svg width="1200" height="630" viewBox="0 0 1200 630" xmlns="http://www.w3.org/2000/svg">
  <defs>
    <linearGradient id="bg" x1="0" y1="0" x2="1" y2="1">
      <stop offset="0%" stop-color="#f7efe2"/>
      <stop offset="100%" stop-color="#fff7eb"/>
    </linearGradient>
  </defs>
  <rect width="1200" height="630" fill="url(#bg)"/>
  <rect x="40" y="40" width="1120" height="80" rx="20" fill="#fff2df" stroke="#e9dcc9"/>
  <circle cx="96" cy="80" r="22" fill="#222"/>
  <rect x="132" y="62" width="120" height="36" rx="10" fill="#222" opacity=".06"/>
  <rect x="980" y="60" width="80" height="40" rx="20" fill="#fff" stroke="#e0d2b9"/>
  <rect x="1070" y="60" width="80" height="40" rx="20" fill="#f5a524"/>

  <rect x="60" y="160" width="620" height="310" rx="26" fill="#fff2df" stroke="#e9dcc9"/>
  <rect x="80" y="190" width="160" height="28" rx="14" fill="#fff" stroke="#eee"/>
  <rect x="80" y="230" width="520" height="120" rx="8" fill="#222" opacity=".9"/>
  <rect x="80" y="360" width="460" height="12" rx="6" fill="#222" opacity=".25"/>

  <rect x="700" y="160" width="420" height="310" rx="26" fill="#fff" stroke="#e9dcc9"/>
  <circle cx="910" cy="315" r="130" fill="#f7d7a3"/>

  <rect x="60" y="490" width="1080" height="130" rx="26" fill="#fff2df" stroke="#e9dcc9"/>
  <circle cx="180" cy="555" r="44" fill="#fff" stroke="#e9dcc9"/>
  <rect x="240" y="520" width="160" height="20" rx="10" fill="#222" opacity=".4"/>
  <rect x="240" y="548" width="230" height="12" rx="6" fill="#222" opacity=".18"/>

  <circle cx="580" cy="555" r="44" fill="#fff" stroke="#e9dcc9"/>
  <rect x="640" y="520" width="160" height="20" rx="10" fill="#222" opacity=".4"/>
  <rect x="640" y="548" width="230" height="12" rx="6" fill="#222" opacity=".18"/>

  <circle cx="980" cy="555" r="44" fill="#fff" stroke="#e9dcc9"/>
  <rect x="1040" y="520" width="120" height="20" rx="10" fill="#222" opacity=".4"/>
  <rect x="1040" y="548" width="150" height="12" rx="6" fill="#222" opacity=".18"/>
</svg>